<svg width="47" height="40" viewBox="0 0 47 40" fill="none" xmlns="http://www.w3.org/2000/svg">
<path d="M46.5993 5.26264C45.0874 5.91386 43.4981 6.36732 41.8704 6.61184C42.6314 6.48127 43.7511 5.11032 44.1968 4.5554C44.8739 3.71837 45.39 2.76283 45.7187 1.73733C45.7187 1.66116 45.7948 1.55236 45.7187 1.49795C45.6804 1.477 45.6374 1.46602 45.5937 1.46602C45.55 1.46602 45.507 1.477 45.4687 1.49795C43.7013 2.45591 41.8203 3.18704 39.8702 3.67407C39.8022 3.69486 39.7298 3.69672 39.6609 3.67947C39.5919 3.66222 39.529 3.6265 39.4788 3.57615C39.327 3.39524 39.1636 3.22441 38.9896 3.06476C38.1942 2.35148 37.2918 1.76769 36.3154 1.33474C34.9973 0.793517 33.5736 0.559124 32.1518 0.649265C30.7722 0.736471 29.4252 1.10684 28.1948 1.73733C26.983 2.40205 25.9181 3.30509 25.0639 4.3922C24.1654 5.5111 23.5167 6.80962 23.1615 8.20041C22.8686 9.52333 22.8354 10.8906 23.0637 12.2262C23.0637 12.4547 23.0637 12.4874 22.868 12.4547C15.117 11.3123 8.75751 8.55947 3.56119 2.6513C3.3329 2.39016 3.21332 2.39016 3.02852 2.6513C0.76736 6.08957 1.86533 11.5299 4.69177 14.2174C5.07225 14.5764 5.46361 14.9246 5.8767 15.251C4.5808 15.159 3.31654 14.8075 2.15884 14.2174C1.94142 14.0759 1.82184 14.1521 1.81097 14.4132C1.78015 14.7753 1.78015 15.1393 1.81097 15.5013C2.0378 17.2363 2.72095 18.8799 3.79057 20.264C4.86019 21.6481 6.27789 22.723 7.8987 23.3789C8.29381 23.5482 8.70552 23.6759 9.12712 23.7597C7.92743 23.9961 6.69699 24.0328 5.48535 23.8685C5.22445 23.8141 5.12661 23.9555 5.22445 24.2058C6.82248 28.558 10.2903 29.8855 12.8341 30.6253C13.182 30.6797 13.5299 30.6797 13.9212 30.7668C13.9212 30.7668 13.9212 30.7668 13.856 30.8321C13.1059 32.203 10.0729 33.1279 8.68141 33.6066C6.1416 34.5197 3.43369 34.8687 0.745618 34.6294C0.321651 34.5641 0.223812 34.575 0.115103 34.6294C0.00639349 34.6838 0.115103 34.8035 0.234683 34.9123C0.778231 35.2714 1.32178 35.5869 1.88707 35.8916C3.56994 36.8103 5.34907 37.5401 7.19209 38.0677C16.7368 40.7008 27.4773 38.764 34.6412 31.6372C40.2724 26.0446 42.2509 18.3303 42.2509 10.605C42.2509 10.3112 42.6096 10.1372 42.8162 9.98483C44.2408 8.8738 45.4968 7.56171 46.5449 6.08957C46.7264 5.87013 46.8195 5.59073 46.8058 5.30617C46.8058 5.14296 46.8058 5.1756 46.5993 5.26264Z" fill="white"/>
</svg>
