<svg width="39" height="38" viewBox="0 0 39 38" fill="none" xmlns="http://www.w3.org/2000/svg">
<path d="M9.31155 37.2386V12.5051H1.09782V37.2386H9.31241H9.31155ZM5.2064 9.12874C8.0701 9.12874 9.85294 7.2295 9.85294 4.85598C9.79934 2.42839 8.0701 0.582153 5.26086 0.582153C2.4497 0.582153 0.613678 2.42839 0.613678 4.85577C0.613678 7.22928 2.39588 9.12852 5.15258 9.12852H5.20576L5.2064 9.12874ZM13.858 37.2386H22.071V23.4278C22.071 22.6895 22.1247 21.9494 22.3416 21.4221C22.9351 19.9445 24.2866 18.4151 26.5561 18.4151C29.5275 18.4151 30.7168 20.683 30.7168 24.0083V37.2386H38.9297V23.0571C38.9297 15.4604 34.8781 11.9252 29.4743 11.9252C25.0439 11.9252 23.0981 14.4037 22.017 16.0918H22.0717V12.506H13.8584C13.9656 14.8262 13.8577 37.2394 13.8577 37.2394L13.858 37.2386Z" fill="white"/>
</svg>
