<svg width="47" height="46" viewBox="0 0 47 46" fill="none" xmlns="http://www.w3.org/2000/svg">
<path d="M16.0778 22.9108C16.0778 18.6932 19.4949 15.2733 23.7113 15.2733C27.9277 15.2733 31.3467 18.6932 31.3467 22.9108C31.3467 27.1284 27.9277 30.5483 23.7113 30.5483C19.4949 30.5483 16.0778 27.1284 16.0778 22.9108ZM11.9503 22.9108C11.9503 29.4083 17.2157 34.6752 23.7113 34.6752C30.2069 34.6752 35.4723 29.4083 35.4723 22.9108C35.4723 16.4133 30.2069 11.1464 23.7113 11.1464C17.2157 11.1464 11.9503 16.4133 11.9503 22.9108ZM33.1894 10.6799C33.1892 11.2237 33.3502 11.7553 33.652 12.2075C33.9539 12.6598 34.383 13.0123 34.8851 13.2206C35.3873 13.4289 35.9399 13.4836 36.4731 13.3777C37.0063 13.2718 37.4961 13.0102 37.8806 12.6258C38.2652 12.2415 38.5271 11.7517 38.6334 11.2185C38.7397 10.6852 38.6855 10.1324 38.4776 9.62992C38.2698 9.12747 37.9177 8.69795 37.4658 8.39567C37.014 8.09339 36.4826 7.93194 35.939 7.93172H35.9379C35.2093 7.93206 34.5106 8.22167 33.9952 8.73696C33.4799 9.25224 33.1901 9.95105 33.1894 10.6799ZM14.458 41.5596C12.225 41.4579 11.0112 41.0858 10.2046 40.7715C9.13527 40.3551 8.37229 39.8591 7.57009 39.0578C6.7679 38.2565 6.27133 37.494 5.85686 36.4243C5.54243 35.6179 5.17047 34.4034 5.06896 32.1697C4.95792 29.7547 4.93575 29.0293 4.93575 22.911C4.93575 16.7927 4.95975 16.0693 5.06896 13.6523C5.17065 11.4186 5.54536 10.2065 5.85686 9.39764C6.27317 8.32798 6.769 7.56478 7.57009 6.76235C8.37119 5.95992 9.13344 5.46322 10.2046 5.04862C11.0109 4.7341 12.225 4.36203 14.458 4.26049C16.8723 4.14942 17.5975 4.12724 23.7113 4.12724C29.8251 4.12724 30.5511 4.15125 32.9674 4.26049C35.2004 4.36222 36.4121 4.73704 37.2208 5.04862C38.2901 5.46322 39.0531 5.96102 39.8553 6.76235C40.6575 7.56368 41.1522 8.32798 41.5685 9.39764C41.8829 10.2041 42.2549 11.4186 42.3564 13.6523C42.4675 16.0693 42.4896 16.7927 42.4896 22.911C42.4896 29.0293 42.4675 29.7527 42.3564 32.1697C42.2547 34.4034 41.8809 35.6175 41.5685 36.4243C41.1522 37.494 40.6564 38.2572 39.8553 39.0578C39.0542 39.8584 38.2901 40.3551 37.2208 40.7715C36.4145 41.086 35.2004 41.4581 32.9674 41.5596C30.5531 41.6707 29.8278 41.6929 23.7113 41.6929C17.5948 41.6929 16.8716 41.6707 14.458 41.5596ZM14.2684 0.138748C11.8301 0.249819 10.1639 0.636554 8.70889 1.20291C7.20198 1.78778 5.92631 2.57242 4.65155 3.84553C3.3768 5.11864 2.59439 6.39669 2.00969 7.90404C1.4435 9.36044 1.05688 11.0261 0.945837 13.4651C0.832965 15.908 0.807129 16.689 0.807129 22.9108C0.807129 29.1326 0.832965 29.9136 0.945837 32.3565C1.05688 34.7956 1.4435 36.4612 2.00969 37.9176C2.59439 39.424 3.37698 40.7035 4.65155 41.9761C5.92612 43.2486 7.20198 44.0322 8.70889 44.6187C10.1667 45.185 11.8301 45.5718 14.2684 45.6828C16.7118 45.7939 17.4913 45.8216 23.7113 45.8216C29.9314 45.8216 30.7121 45.7958 33.1543 45.6828C35.5927 45.5718 37.2578 45.185 38.7137 44.6187C40.2197 44.0322 41.4963 43.2492 42.7711 41.9761C44.0458 40.703 44.8266 39.424 45.4129 37.9176C45.9791 36.4612 46.3676 34.7955 46.4768 32.3565C46.5878 29.9118 46.6137 29.1326 46.6137 22.9108C46.6137 16.689 46.5878 15.908 46.4768 13.4651C46.3658 11.026 45.9791 9.35952 45.4129 7.90404C44.8266 6.39761 44.0438 5.12066 42.7711 3.84553C41.4983 2.57041 40.2197 1.78778 38.7156 1.20291C37.2578 0.636554 35.5925 0.247986 33.1561 0.138748C30.7139 0.0276762 29.9332 0 23.7131 0C17.4931 0 16.7118 0.0258434 14.2684 0.138748Z" fill="white"/>
</svg>
